<svg xmlns="http://www.w3.org/2000/svg" width="1920" height="1080"><path fill="#ffeead" fill-rule="evenodd" d="M901.515 529.24l115.91-31.058 31.06 115.91-115.912 31.06zm247.753 109.596l135.23-36.234 36.235 135.23-135.23 36.234zm-381.01-30.05l57.955-15.53 15.53 57.958-57.956 15.53zM852.4 392.52l75.082-20.118 20.12 75.082-75.084 20.12zM478.763 544.644l96.592-25.882 25.882 96.593-96.592 25.882zm-281.88-368.196l162.833-43.63 43.63 162.832-162.832 43.63zm817.385 14.054l135.23-36.234 36.234 135.23-135.23 36.234zm560 360l135.23-36.234 36.234 135.23-135.23 36.234zm-180 320l135.23-36.234 36.234 135.23-135.23 36.234zM338.763 924.644l96.592-25.882 25.882 96.593-96.592 25.882zm-220-360l96.592-25.88 25.882 96.59-96.593 25.883zm510-370l96.592-25.88 25.882 96.59-96.593 25.883zm1065 90.43l96.593-25.88 25.882 96.59-96.593 25.883zm-70.505 493.712l57.955-15.53 15.53 57.957-57.956 15.53zm-157.688-349.43l57.954-15.53 15.53 57.956-57.956 15.53zm-30.077 220.454l57.956-15.53 15.526 57.955-57.956 15.53zM52.4 32.518L127.482 12.4 147.6 87.482 72.518 107.6zm1398.865 38.865l75.082-20.118 20.12 75.082-75.084 20.12zm-880 900l75.082-20.117 20.12 75.082-75.084 20.118zM492.4 112.518L567.482 92.4l20.118 75.08-75.082 20.12zm426.362 650.46l96.593-25.88 25.882 96.59-96.593 25.883zm-235.57-290.4l75.083-20.12 20.118 75.085-75.082 20.118zM294.268 710.504l135.23-36.235 36.234 135.23-135.23 36.233zM1435.493 269.81l57.955-15.53 15.53 57.955-57.956 15.53zM78.763 384.645l96.593-25.882 25.882 96.593-96.593 25.882zm274.495 24.142l57.955-15.53 15.53 57.957-57.956 15.53zM786.653 68.62l135.23-36.235 36.234 135.23-135.23 36.234zm905.747 903.9l75.082-20.12 20.118 75.083-75.082 20.118zm-539.142 96.267l57.955-15.53 15.53 57.956-57.956 15.53zm0-1080l57.956-15.53 15.53 57.956-57.957 15.53zM191.266-28.616l75.082-20.12 20.118 75.084-75.082 20.118zm0 1080l75.082-20.118 20.118 75.082-75.082 20.118zm755.25-53.81l115.91-31.06 31.06 115.91-115.912 31.06zm0-1080l115.91-31.06 31.06 115.91-115.913 31.06zm846.742 151.213l57.956-15.53 15.53 57.956-57.957 15.53zm-646.668 300l185.416-49.68 49.682 185.413-185.415 49.682zM643.826 748.142l145.22-38.912 38.91 145.22-145.218 38.913zM478.763 324.645l140.244-37.578 37.58 140.244-140.246 37.58zM1612.4 132.518l75.082-20.118 20.118 75.082-75.082 20.118zM483.257-21.212l57.956-15.53 15.53 57.955-57.957 15.53zm0 1080l57.956-15.53 15.53 57.955-57.956 15.53zM74.927 842.12l95.275-25.53 25.53 95.277-95.275 25.53zm-31.67-583.333l57.957-15.53 15.53 57.956-57.957 15.53z"/></svg>