<svg xmlns="http://www.w3.org/2000/svg" width="1920" height="1080">
  <path fill="#222" fill-rule="evenodd" d="M512.373 822.07l77.274-20.707 20.705 77.274-77.274 20.706zm67.98-751.972l154.55-41.41 41.41 154.547-154.548 41.41zM151.59 345.453l57.957-15.53 15.53 57.957-57.957 15.53zm423.258 285.454l115.91-31.058 31.06 115.91-115.91 31.055zM440.468 430.92l96.59-25.883 25.88 96.593-96.59 25.882zM1637.02 166.764l104.717-28.058 28.06 104.717-104.718 28.058zm-181.667 673.334l99.26-26.596 26.596 99.26-99.26 26.596zM188.687 788.43l154.55-41.41 41.41 154.548-154.55 41.41zM1368.56 513.102l115.91-31.058 31.06 115.91-115.912 31.06zm-102.045 304.472l65.51-17.553 17.554 65.51-65.51 17.557zm440-40l115.91-31.06 31.06 115.912-115.912 31.06zM693.8 307.584l96.592-25.88 25.882 96.592-96.593 25.882zm164.962 577.06l96.593-25.88 25.882 96.59-96.593 25.883zM71.01 211.714l77.275-20.704 20.705 77.274-77.274 20.705zm1364.344 81.67l77.274-20.707 20.705 77.274-77.274 20.71zm-239.344 88.33l92.672-24.83 24.832 92.67-92.672 24.833zM523.257 978.787l57.956-15.53 15.53 57.957-57.957 15.53zm1069.925-348.333l57.955-15.53 15.53 57.957-57.956 15.53zm-664.924-490l57.955-15.53 15.53 57.956-57.956 15.53zM46.515-62.426l115.91-31.058 31.06 115.91-115.912 31.06zm0 1080l115.912-31.058 31.058 115.91-115.91 31.06zm735-480l228.848-61.32 61.32 228.847-228.848 61.32zM1553.26 48.786l57.955-15.53 15.53 57.956-57.956 15.53zM-137.98 523.43l154.55-41.41 41.41 154.548-154.55 41.41zm1920 .002l154.548-41.41 41.41 154.547-154.547 41.41zm-153.46 509.67l115.91-31.057 31.06 115.91-115.912 31.06zm0-1080l115.91-31.06 31.06 115.913-115.912 31.06zm-619.797 381.543l96.593-25.882 25.882 96.592-96.593 25.882zm-822.248 167.93l115.91-31.06 31.06 115.91-115.912 31.06zm1135.505 569.14l77.274-20.705 20.706 77.274-77.274 20.706zm0-1080l77.275-20.705L1420 48.284l-77.274 20.706zM298.763 144.645l96.593-25.88 25.882 96.592-96.593 25.882zm864.494 494.143l57.956-15.53 15.53 57.956-57.957 15.53zm-80.075 268.787l115.91-31.06 31.06 115.913-115.912 31.058zM670.43 802.978l96.592-25.882 25.882 96.593-96.593 25.88zm-612.173 5.81l57.956-15.53 15.53 57.955-57.956 15.53zm1260-651.668l57.957-15.53 15.53 57.957-57.957 15.53z"/>
</svg>
