<svg xmlns="http://www.w3.org/2000/svg" width="1920" height="1080">
  <path fill="#444" fill-rule="evenodd" d="M311.01 479.716l77.274-20.706 20.706 77.274-77.275 20.706zm115.753 110.928l96.592-25.88 25.882 96.59-96.592 25.883zm185.752 266.93l115.91-31.06 31.06 115.91-115.91 31.06zm498.495-465.858l77.274-20.706 20.706 77.274-77.274 20.706zm103.258 378.787l164.22-44.003 44.002 164.22-164.22 44.003zM651.01 71.716l77.274-20.706 20.706 77.274-77.274 20.706zm981.506 41.858l115.91-31.06 31.06 115.913-115.912 31.058zm-734.248 416.93l164.403-44.053 44.06 164.41-164.4 44.05zm-385.753-110.93l115.91-31.058 31.06 115.91-115.91 31.06zm-391.152 530.78l77.274-20.707 20.705 77.274-77.274 20.71zm-15.11-785.476l115.91-31.058 31.06 115.91-115.91 31.06zm460.262 72.695l115.91-31.058 31.06 115.91-115.912 31.06zm-240 42.087l115.91-31.057 31.06 115.91-115.91 31.06zM260.56 807.102l209.43-56.116 56.118 209.43-209.43 56.118zm-9.55-155.387l77.274-20.705 20.706 77.274-77.274 20.705zm700-420l131.523-35.24 35.24 131.52-131.52 35.243zm20 540l77.274-20.705 20.706 77.274-77.274 20.706zM679.648 645.363l77.274-20.705 20.705 77.274-77.274 20.708zm703.362-351.646l77.274-20.706 20.706 77.28-77.274 20.71zM800.763 78.647l96.593-25.884 25.882 96.593-96.593 25.882zm298-34l96.592-25.884 25.882 96.592-96.593 25.882zm164 419.997l96.592-25.88 25.882 96.59-96.593 25.883zM1493.44 818.97l138.413-37.087 37.088 138.414-138.41 37.087zM58.763 674.645l96.593-25.882 25.882 96.593-96.593 25.88zm1200-550l96.592-25.88 25.882 96.59-96.592 25.882zm156 440l96.592-25.883 25.882 96.593-96.593 25.882zM915.703 930.94l96.594-25.88 25.882 96.592-96.6 25.882zM820 778.787l57.955-15.53 15.53 57.956-57.956 15.53zm-356.743-620l57.956-15.53 15.53 57.956-57.957 15.53zM129.493 447.81l57.956-15.53 15.52 57.956-57.96 15.53zm1049.765 200.977l57.955-15.53 15.53 57.956-57.956 15.53zm-26 314.743l57.956-15.53 15.53 57.956-57.957 15.53zm468-400.743l57.956-15.53 15.53 57.956-57.957 15.53zm114 358l57.955-15.53 15.53 57.956-57.956 15.53zm-240-824l57.955-15.53 15.53 57.956-57.956 15.53zm-912 962l57.955-15.53 15.53 57.957-57.957 15.53zm0-1080l57.955-15.53 15.53 57.956-57.956 15.53zM-93.484 1057.573l115.91-31.058 31.06 115.91-115.912 31.06zm0-1080l115.91-31.058 31.06 115.91-115.913 31.06zm1920 0l115.91-31.057 31.06 115.91-115.912 31.06zm0 1080l115.91-31.058 31.06 115.91-115.913 31.06zm-284.28-344.55l57.955-15.53 15.53 57.956-57.95 15.52zm14.737-358.67l132.315-35.455 35.454 132.316-132.316 35.454zm147.79 370.29l96.593-25.88 25.882 96.59-96.593 25.884zm119.504-304.14l135.23-36.236 36.235 135.23-135.23 36.235zm-1920 0l135.23-36.235 36.235 135.23-135.23 36.234zm1474.496 624.14l96.593-25.88 25.882 96.592-96.593 25.882zm0-1080l96.592-25.88 25.882 96.592-96.593 25.882zm-624.495 385.86l133.363-35.735 36.24 135.23-133.36 35.734zM371.01 1091.715l77.275-20.706 20.705 77.27-77.274 20.7zm0-1080L448.284-8.99l20.706 77.274-77.274 20.706zM57.258 76.785l57.956-15.53 15.53 57.958-57.957 15.53zm-86.248 154.93l77.275-20.705 20.705 77.274-77.274 20.706zm1920 0l77.274-20.704 20.706 77.28-77.274 20.71z"/>
</svg>
